) (`-.                           (` .-') /`           ) (`-.
       ( OO ).                          `.( OO ),'            ( OO ).
      (_/.  _)-.-'),-----. ,--.     ,--./  .--.  .-'),-----.(_/.  _)-.
         `.'  ( OO'  .-.  '|  |.-') |      |  | ( OO'  .-.  '  `.'  /
             /Y   |  | |  ||  | OO )|  |   |  |,/   |  | |  |      /
             _) |  ||  ||  |`-' ||  |.'.|  |_)_) |  ||  |      |
        .'    _) |  | |  (|  '---.'|         |    |  | |  | .'    _)
       /  .'.    `'  '-'  '|      | |   ,'.   |    `'  '-'  '/  .'.  
      '--'   '--'   `-----' `------' '--'   '--'      `-----''--'   '--'


      ßßßßßßßßßßßßßßßßßßßßßßßßßßßßßßßßßßßßßßßßßßßßßßßßßßßßßßßßßßßßßßßßßßßßßß

                    Û°°°°°°°°°°°°°°°°°°°°°°°°°°°°°°°°°Û
                   ÛÛ Jennifer's Body[2009]{HQ-TS}-LW ÛÛ
                    Û°°°°°°°°°°°°°°°°°°°°°°°°°°°°°°°°°Û

File Name    : Jennifer's Body[2009]{HQ-TS}-LW
Type         : Movie
Format       : MP4
File Size    : 1.09 GB
Duration     : 01:38:26
Language     : English
Source       : DvD
Subtitles    : None
Genre        : Comedy | Horror | Thriller
IMDB Link    : http://www.imdb.com/title/tt1131734/
IMDB Rating  : 5.7/10
IMDB Votes   : 4,548 Votes
     ÜÜÜÜÜÜÜÜÜÜÜÜÜÜÜÜÜÜÜÜÜÜÜÜÜÜÜÜÜÜÜÜÜÜÜÜÜÜÜÜÜÜÜÜÜÜÜÜÜÜÜÜÜÜÜÜÜÜÜÜÜÜÜÜÜÜÜÜÜÜ
 
                        Û°°°°°°°°°°°°°°°°°°°°°°°°Û
                       ÛÛ       Video Info       ÛÛ
                        Û°°°°°°°°°°°°°°°°°°°°°°°°Û

Format                           : MPEG-4 Visual
Format profile                   : Simple@L3
Format settings, BVOP            : No
Format settings, QPel            : No
Format settings, GMC             : No warppoints
Format settings, Matrix          : Default (H.263)
Codec ID                         : 20
Duration                         : 1h 38mn
Bit rate mode                    : Constant
Bit rate                         : 1 500 Kbps
Width                            : 672 pixels
Height                           : 352 pixels
Display aspect ratio             : 1.909
Frame rate mode                  : Constant
Frame rate                       : 23.976 fps
Resolution                       : 24 bits
Colorimetry                      : 4:2:0
Scan type                        : Progressive
Bits/(Pixel*Frame)               : 0.264
Stream size                      : 1.03 GiB (94%)
     ÜÜÜÜÜÜÜÜÜÜÜÜÜÜÜÜÜÜÜÜÜÜÜÜÜÜÜÜÜÜÜÜÜÜÜÜÜÜÜÜÜÜÜÜÜÜÜÜÜÜÜÜÜÜÜÜÜÜÜÜÜÜÜÜÜÜÜÜÜÜ

                         Û°°°°°°°°°°°°°°°°°°°°°°°°Û
                        ÛÛ      Sound Info        ÛÛ
                         Û°°°°°°°°°°°°°°°°°°°°°°°°Û

Format                           : AAC
Format/Info                      : Advanced Audio Codec
Format version                   : Version 4
Format profile                   : LC
Format settings, SBR             : No
Codec ID                         : 40
Duration                         : 1h 38mn
Bit rate mode                    : Constant
Bit rate                         : 96.0 Kbps
Nominal bit rate                 : 48.0 Kbps
Channel(s)                       : 2 channels
Channel positions                : L R
Sampling rate                    : 24.0 KHz
Resolution                       : 16 bits
Stream size                      : 67.6 MiB (6%)
    ÜÜÜÜÜÜÜÜÜÜÜÜÜÜÜÜÜÜÜÜÜÜÜÜÜÜÜÜÜÜÜÜÜÜÜÜÜÜÜÜÜÜÜÜÜÜÜÜÜÜÜÜÜÜÜÜÜÜÜÜÜÜÜÜÜÜÜÜÜÜ

                          Û°°°°°°°°°°°°°°°°°°°°°°°°Û
                         ÛÛ          Plot          ÛÛ
                          Û°°°°°°°°°°°°°°°°°°°°°°°°Û

After a supernatural romp with a satanic emo band, 
hot cheerleader Jennifer (Megan Fox) is transformed 
into a demon with an insatiable appetite for high 
school boys. Now, it's up to Jennifer's BFF, Needy 
(Amanda Seyfried), to protect the guys from the 
bloodthirsty man-eater. Penned by Diablo Cody (Juno), 
this one-of-a-kind horror comedy co-stars Adam Brody 
as the devil-worshipping band's lead singer.

Starring: Megan Fox, Amanda Seyfried

Director: Karyn Kusama
    ÜÜÜÜÜÜÜÜÜÜÜÜÜÜÜÜÜÜÜÜÜÜÜÜÜÜÜÜÜÜÜÜÜÜÜÜÜÜÜÜÜÜÜÜÜÜÜÜÜÜÜÜÜÜÜÜÜÜÜÜÜÜÜÜÜÜÜÜÜÜ

ScreenShots 
http://imgshack.info/images/7j3jf0zg8zsfn9l6cnub.png 
http://imgshack.info/images/2lxpd3t8gts6xqrz7jz.png 
http://imgshack.info/images/m90kpicxjkdem55zxr8s.png 
http://imgshack.info/images/h2ztwbuqozub6yxly2c9.jpg